# xmcd
#
# Track frame offsets:
# 150
# 21977
# 48914
# 71643
# 104087
# 132143
# 160113
# 192361
# 222482
# 244952
# 263617
# 287552
#
# Disc length: 4442 seconds
#
#
# Revision: 0
# Processed by: cddbd v1.5.1PL0 Copyright (c) Steve Scherf et al.
# Submitted via: FreeRIP 2.80 
#
DISCID=b411580c
DTITLE=Uni Big Band Karlsruhe - Südafrika
DYEAR=1999
DGENRE=Big Band
TTITLE0=The End of a Love Affair
TTITLE1=Goodby Pork Pie Hat
TTITLE2=Bluesette
TTITLE3=Stormy Monday
TTITLE4=Superstition
TTITLE5=Moanin'
TTITLE6=Summer Dance
TTITLE7=Summertime
TTITLE8=Hanky-Panky
TTITLE9=Spirit
TTITLE10=Salt Peanuts
TTITLE11=Jungle Gym
EXTD=
EXTT0=
EXTT1=
EXTT2=
EXTT3=
EXTT4=
EXTT5=
EXTT6=
EXTT7=
EXTT8=
EXTT9=
EXTT10=
EXTT11=
PLAYORDER=
